# Blender 5.1.2
# www.blender.org
mtllib Pillar.mtl
o Pillar
v 0.000000 0.000000 -0.700000
v 0.000000 4.738420 -0.700000
v 0.606218 0.000000 -0.350000
v 0.606218 4.738420 -0.350000
v 0.606218 0.000000 0.350000
v 0.606218 4.738420 0.350000
v 0.000000 0.000000 0.700000
v 0.000000 4.738420 0.700000
v -0.606218 0.000000 0.350000
v -0.606218 4.738420 0.350000
v -0.606218 0.000000 -0.350000
v -0.606218 4.738420 -0.350000
vn 0.5000 -0.0000 -0.8660
vn 1.0000 -0.0000 -0.0000
vn 0.5000 -0.0000 0.8660
vn -0.5000 -0.0000 0.8660
vn -0.0000 1.0000 -0.0000
vn -1.0000 -0.0000 -0.0000
vn -0.5000 -0.0000 -0.8660
vn -0.0000 -1.0000 -0.0000
vt -0.004092 0.765493
vt 0.996711 0.765493
vt 0.996711 0.790678
vt -0.004092 0.790678
vt 0.996711 0.815864
vt -0.004093 0.815864
vt 0.996711 0.841049
vt -0.004093 0.841049
vt 0.996711 0.866234
vt -0.004093 0.866234
vt 0.122596 0.108717
vt 0.081739 0.132306
vt 0.040881 0.108717
vt 0.040881 0.061539
vt 0.081739 0.037950
vt 0.122596 0.061539
vt 0.996711 0.891420
vt -0.004093 0.891420
vt 0.996710 0.916605
vt -0.004093 0.916605
vt 0.180026 0.132306
vt 0.220884 0.108717
vt 0.220884 0.061539
vt 0.180026 0.037950
vt 0.139169 0.061539
vt 0.139169 0.108717
s 0
f 1/1/1 2/2/1 4/3/1 3/4/1
f 3/4/2 4/3/2 6/5/2 5/6/2
f 5/6/3 6/5/3 8/7/3 7/8/3
f 7/8/4 8/7/4 10/9/4 9/10/4
f 4/11/5 2/12/5 12/13/5 10/14/5 8/15/5 6/16/5
f 9/10/6 10/9/6 12/17/6 11/18/6
f 11/18/7 12/17/7 2/19/7 1/20/7
f 1/21/8 3/22/8 5/23/8 7/24/8 9/25/8 11/26/8
